<mxfile host="Electron" modified="2024-01-23T19:25:22.063Z" agent="Mozilla/5.0 (Windows NT 10.0; Win64; x64) AppleWebKit/537.36 (KHTML, like Gecko) draw.io/22.1.21 Chrome/120.0.6099.109 Electron/28.1.0 Safari/537.36" etag="AxxqDBnomxmVzW2gCOW9" version="22.1.21" type="device" pages="2">
  <diagram id="C5RBs43oDa-KdzZeNtuy" name="Page-1">
    <mxGraphModel dx="1434" dy="884" grid="1" gridSize="10" guides="1" tooltips="1" connect="1" arrows="1" fold="1" page="1" pageScale="1" pageWidth="827" pageHeight="1169" math="0" shadow="0">
      <root>
        <mxCell id="WIyWlLk6GJQsqaUBKTNV-0" />
        <mxCell id="WIyWlLk6GJQsqaUBKTNV-1" parent="WIyWlLk6GJQsqaUBKTNV-0" />
        <mxCell id="qtHoDfniQL__DjmvW1wy-0" value="" style="rhombus;whiteSpace=wrap;html=1;" vertex="1" parent="WIyWlLk6GJQsqaUBKTNV-1">
          <mxGeometry x="120" y="240" width="40" height="40" as="geometry" />
        </mxCell>
        <mxCell id="qtHoDfniQL__DjmvW1wy-1" value="Initialize Pins and Antenna" style="rounded=1;whiteSpace=wrap;html=1;" vertex="1" parent="WIyWlLk6GJQsqaUBKTNV-1">
          <mxGeometry x="80" y="160" width="120" height="40" as="geometry" />
        </mxCell>
        <mxCell id="rE0FKEeYQDpA2Y7HMvfK-0" value="&lt;font style=&quot;font-size: 15px;&quot;&gt;Core 0&lt;/font&gt;" style="text;html=1;strokeColor=none;fillColor=none;align=center;verticalAlign=middle;whiteSpace=wrap;rounded=0;" vertex="1" parent="WIyWlLk6GJQsqaUBKTNV-1">
          <mxGeometry x="110" y="40" width="60" height="30" as="geometry" />
        </mxCell>
        <mxCell id="rE0FKEeYQDpA2Y7HMvfK-1" value="" style="ellipse;fillColor=strokeColor;html=1;" vertex="1" parent="WIyWlLk6GJQsqaUBKTNV-1">
          <mxGeometry x="125" y="90" width="30" height="30" as="geometry" />
        </mxCell>
        <mxCell id="rE0FKEeYQDpA2Y7HMvfK-2" value="Read four bytes from buffer that identify the packet" style="rounded=1;whiteSpace=wrap;html=1;" vertex="1" parent="WIyWlLk6GJQsqaUBKTNV-1">
          <mxGeometry x="200" y="320" width="120" height="50" as="geometry" />
        </mxCell>
        <mxCell id="7xf99fUFVS-T-3QpDz9j-0" value="" style="rhombus;whiteSpace=wrap;html=1;" vertex="1" parent="WIyWlLk6GJQsqaUBKTNV-1">
          <mxGeometry x="240" y="400" width="40" height="40" as="geometry" />
        </mxCell>
        <mxCell id="7xf99fUFVS-T-3QpDz9j-1" value="Invalid message.&lt;br&gt;Dump data." style="rounded=1;whiteSpace=wrap;html=1;" vertex="1" parent="WIyWlLk6GJQsqaUBKTNV-1">
          <mxGeometry x="200" y="520" width="120" height="50" as="geometry" />
        </mxCell>
        <mxCell id="7xf99fUFVS-T-3QpDz9j-2" value="Set number of bytes&lt;br&gt;to be read to size of bme packet" style="rounded=1;whiteSpace=wrap;html=1;" vertex="1" parent="WIyWlLk6GJQsqaUBKTNV-1">
          <mxGeometry x="360" y="520" width="120" height="50" as="geometry" />
        </mxCell>
        <mxCell id="7xf99fUFVS-T-3QpDz9j-3" value="Set number of bytes to be read to size of time packet" style="rounded=1;whiteSpace=wrap;html=1;" vertex="1" parent="WIyWlLk6GJQsqaUBKTNV-1">
          <mxGeometry x="520" y="520" width="120" height="50" as="geometry" />
        </mxCell>
        <mxCell id="7xf99fUFVS-T-3QpDz9j-4" value="Set number of bytes to be read to size of meteo packet" style="rounded=1;whiteSpace=wrap;html=1;" vertex="1" parent="WIyWlLk6GJQsqaUBKTNV-1">
          <mxGeometry x="680" y="520" width="120" height="50" as="geometry" />
        </mxCell>
        <mxCell id="7xf99fUFVS-T-3QpDz9j-5" value="" style="rhombus;whiteSpace=wrap;html=1;" vertex="1" parent="WIyWlLk6GJQsqaUBKTNV-1">
          <mxGeometry x="560" y="680" width="40" height="40" as="geometry" />
        </mxCell>
        <mxCell id="7xf99fUFVS-T-3QpDz9j-6" value="Read until packet is full or timeout occured" style="rounded=1;whiteSpace=wrap;html=1;" vertex="1" parent="WIyWlLk6GJQsqaUBKTNV-1">
          <mxGeometry x="520" y="760" width="120" height="50" as="geometry" />
        </mxCell>
        <mxCell id="7xf99fUFVS-T-3QpDz9j-7" value="" style="endArrow=classic;html=1;rounded=0;exitX=0.5;exitY=1;exitDx=0;exitDy=0;entryX=0.5;entryY=0;entryDx=0;entryDy=0;" edge="1" parent="WIyWlLk6GJQsqaUBKTNV-1" source="7xf99fUFVS-T-3QpDz9j-3" target="7xf99fUFVS-T-3QpDz9j-5">
          <mxGeometry width="50" height="50" relative="1" as="geometry">
            <mxPoint x="610" y="640" as="sourcePoint" />
            <mxPoint x="660" y="590" as="targetPoint" />
          </mxGeometry>
        </mxCell>
        <mxCell id="7xf99fUFVS-T-3QpDz9j-8" value="" style="endArrow=classic;html=1;rounded=0;exitX=0.5;exitY=1;exitDx=0;exitDy=0;entryX=1;entryY=0.5;entryDx=0;entryDy=0;" edge="1" parent="WIyWlLk6GJQsqaUBKTNV-1" source="7xf99fUFVS-T-3QpDz9j-4" target="7xf99fUFVS-T-3QpDz9j-5">
          <mxGeometry width="50" height="50" relative="1" as="geometry">
            <mxPoint x="590" y="580" as="sourcePoint" />
            <mxPoint x="590" y="690" as="targetPoint" />
            <Array as="points">
              <mxPoint x="740" y="700" />
            </Array>
          </mxGeometry>
        </mxCell>
        <mxCell id="7xf99fUFVS-T-3QpDz9j-9" value="" style="endArrow=classic;html=1;rounded=0;exitX=0.5;exitY=1;exitDx=0;exitDy=0;entryX=0;entryY=0.5;entryDx=0;entryDy=0;" edge="1" parent="WIyWlLk6GJQsqaUBKTNV-1" source="7xf99fUFVS-T-3QpDz9j-2" target="7xf99fUFVS-T-3QpDz9j-5">
          <mxGeometry width="50" height="50" relative="1" as="geometry">
            <mxPoint x="610" y="640" as="sourcePoint" />
            <mxPoint x="660" y="590" as="targetPoint" />
            <Array as="points">
              <mxPoint x="420" y="700" />
            </Array>
          </mxGeometry>
        </mxCell>
        <mxCell id="7xf99fUFVS-T-3QpDz9j-10" value="" style="endArrow=classic;html=1;rounded=0;entryX=0.5;entryY=0;entryDx=0;entryDy=0;exitX=0.5;exitY=1;exitDx=0;exitDy=0;" edge="1" parent="WIyWlLk6GJQsqaUBKTNV-1" source="7xf99fUFVS-T-3QpDz9j-5" target="7xf99fUFVS-T-3QpDz9j-6">
          <mxGeometry width="50" height="50" relative="1" as="geometry">
            <mxPoint x="610" y="640" as="sourcePoint" />
            <mxPoint x="660" y="590" as="targetPoint" />
          </mxGeometry>
        </mxCell>
        <mxCell id="7xf99fUFVS-T-3QpDz9j-11" value="" style="endArrow=classic;html=1;rounded=0;exitX=0.5;exitY=1;exitDx=0;exitDy=0;entryX=0.5;entryY=0;entryDx=0;entryDy=0;" edge="1" parent="WIyWlLk6GJQsqaUBKTNV-1" source="7xf99fUFVS-T-3QpDz9j-0" target="7xf99fUFVS-T-3QpDz9j-1">
          <mxGeometry width="50" height="50" relative="1" as="geometry">
            <mxPoint x="610" y="640" as="sourcePoint" />
            <mxPoint x="660" y="590" as="targetPoint" />
          </mxGeometry>
        </mxCell>
        <mxCell id="7xf99fUFVS-T-3QpDz9j-12" value="" style="endArrow=classic;html=1;rounded=0;exitX=1;exitY=0.5;exitDx=0;exitDy=0;entryX=0.5;entryY=0;entryDx=0;entryDy=0;" edge="1" parent="WIyWlLk6GJQsqaUBKTNV-1" source="7xf99fUFVS-T-3QpDz9j-0" target="7xf99fUFVS-T-3QpDz9j-4">
          <mxGeometry width="50" height="50" relative="1" as="geometry">
            <mxPoint x="270" y="450" as="sourcePoint" />
            <mxPoint x="270" y="530" as="targetPoint" />
            <Array as="points">
              <mxPoint x="740" y="420" />
            </Array>
          </mxGeometry>
        </mxCell>
        <mxCell id="7xf99fUFVS-T-3QpDz9j-13" value="" style="endArrow=classic;html=1;rounded=0;entryX=0.5;entryY=0;entryDx=0;entryDy=0;" edge="1" parent="WIyWlLk6GJQsqaUBKTNV-1" target="7xf99fUFVS-T-3QpDz9j-3">
          <mxGeometry width="50" height="50" relative="1" as="geometry">
            <mxPoint x="580" y="420" as="sourcePoint" />
            <mxPoint x="660" y="590" as="targetPoint" />
          </mxGeometry>
        </mxCell>
        <mxCell id="7xf99fUFVS-T-3QpDz9j-14" value="" style="endArrow=classic;html=1;rounded=0;entryX=0.5;entryY=0;entryDx=0;entryDy=0;" edge="1" parent="WIyWlLk6GJQsqaUBKTNV-1" target="7xf99fUFVS-T-3QpDz9j-2">
          <mxGeometry width="50" height="50" relative="1" as="geometry">
            <mxPoint x="420" y="420" as="sourcePoint" />
            <mxPoint x="660" y="590" as="targetPoint" />
          </mxGeometry>
        </mxCell>
        <mxCell id="7xf99fUFVS-T-3QpDz9j-15" value="" style="endArrow=classic;html=1;rounded=0;exitX=0.5;exitY=1;exitDx=0;exitDy=0;entryX=0.5;entryY=0;entryDx=0;entryDy=0;" edge="1" parent="WIyWlLk6GJQsqaUBKTNV-1" source="rE0FKEeYQDpA2Y7HMvfK-2" target="7xf99fUFVS-T-3QpDz9j-0">
          <mxGeometry width="50" height="50" relative="1" as="geometry">
            <mxPoint x="610" y="420" as="sourcePoint" />
            <mxPoint x="660" y="370" as="targetPoint" />
          </mxGeometry>
        </mxCell>
        <mxCell id="7xf99fUFVS-T-3QpDz9j-16" value="" style="endArrow=classic;html=1;rounded=0;exitX=1;exitY=0.5;exitDx=0;exitDy=0;entryX=0.5;entryY=0;entryDx=0;entryDy=0;" edge="1" parent="WIyWlLk6GJQsqaUBKTNV-1" source="qtHoDfniQL__DjmvW1wy-0" target="rE0FKEeYQDpA2Y7HMvfK-2">
          <mxGeometry width="50" height="50" relative="1" as="geometry">
            <mxPoint x="610" y="420" as="sourcePoint" />
            <mxPoint x="660" y="370" as="targetPoint" />
            <Array as="points">
              <mxPoint x="260" y="260" />
            </Array>
          </mxGeometry>
        </mxCell>
        <mxCell id="7xf99fUFVS-T-3QpDz9j-17" value="" style="endArrow=classic;html=1;rounded=0;exitX=0.5;exitY=1;exitDx=0;exitDy=0;entryX=0.5;entryY=0;entryDx=0;entryDy=0;" edge="1" parent="WIyWlLk6GJQsqaUBKTNV-1" source="rE0FKEeYQDpA2Y7HMvfK-1" target="qtHoDfniQL__DjmvW1wy-1">
          <mxGeometry width="50" height="50" relative="1" as="geometry">
            <mxPoint x="610" y="300" as="sourcePoint" />
            <mxPoint x="660" y="250" as="targetPoint" />
          </mxGeometry>
        </mxCell>
        <mxCell id="7xf99fUFVS-T-3QpDz9j-18" value="" style="endArrow=classic;html=1;rounded=0;exitX=0.5;exitY=1;exitDx=0;exitDy=0;entryX=0.5;entryY=0;entryDx=0;entryDy=0;" edge="1" parent="WIyWlLk6GJQsqaUBKTNV-1" source="qtHoDfniQL__DjmvW1wy-1" target="qtHoDfniQL__DjmvW1wy-0">
          <mxGeometry width="50" height="50" relative="1" as="geometry">
            <mxPoint x="610" y="300" as="sourcePoint" />
            <mxPoint x="660" y="250" as="targetPoint" />
          </mxGeometry>
        </mxCell>
        <mxCell id="7xf99fUFVS-T-3QpDz9j-19" value="" style="rhombus;whiteSpace=wrap;html=1;" vertex="1" parent="WIyWlLk6GJQsqaUBKTNV-1">
          <mxGeometry x="400" y="1240" width="40" height="40" as="geometry" />
        </mxCell>
        <mxCell id="7xf99fUFVS-T-3QpDz9j-20" value="Copy data to send&lt;br&gt;buffer" style="rounded=1;whiteSpace=wrap;html=1;" vertex="1" parent="WIyWlLk6GJQsqaUBKTNV-1">
          <mxGeometry x="360" y="1320" width="120" height="40" as="geometry" />
        </mxCell>
        <mxCell id="7xf99fUFVS-T-3QpDz9j-21" value="" style="rhombus;whiteSpace=wrap;html=1;" vertex="1" parent="WIyWlLk6GJQsqaUBKTNV-1">
          <mxGeometry x="400" y="1480" width="40" height="40" as="geometry" />
        </mxCell>
        <mxCell id="7xf99fUFVS-T-3QpDz9j-22" value="Add checksum" style="rounded=1;whiteSpace=wrap;html=1;" vertex="1" parent="WIyWlLk6GJQsqaUBKTNV-1">
          <mxGeometry x="360" y="1400" width="120" height="40" as="geometry" />
        </mxCell>
        <mxCell id="7xf99fUFVS-T-3QpDz9j-23" value="Send packet&lt;br&gt;to graphic module" style="rounded=1;whiteSpace=wrap;html=1;" vertex="1" parent="WIyWlLk6GJQsqaUBKTNV-1">
          <mxGeometry x="440" y="1560" width="80" height="50" as="geometry" />
        </mxCell>
        <mxCell id="7xf99fUFVS-T-3QpDz9j-24" value="Initiate &lt;br&gt;retransmission" style="rounded=1;whiteSpace=wrap;html=1;" vertex="1" parent="WIyWlLk6GJQsqaUBKTNV-1">
          <mxGeometry x="320" y="1560" width="80" height="50" as="geometry" />
        </mxCell>
        <mxCell id="7xf99fUFVS-T-3QpDz9j-25" value="" style="endArrow=classic;html=1;rounded=0;entryX=0.5;entryY=0;entryDx=0;entryDy=0;exitX=0.5;exitY=1;exitDx=0;exitDy=0;" edge="1" parent="WIyWlLk6GJQsqaUBKTNV-1" source="7xf99fUFVS-T-3QpDz9j-22" target="7xf99fUFVS-T-3QpDz9j-21">
          <mxGeometry width="50" height="50" relative="1" as="geometry">
            <mxPoint x="610" y="1530" as="sourcePoint" />
            <mxPoint x="660" y="1480" as="targetPoint" />
          </mxGeometry>
        </mxCell>
        <mxCell id="7xf99fUFVS-T-3QpDz9j-26" value="" style="endArrow=classic;html=1;rounded=0;exitX=0.5;exitY=1;exitDx=0;exitDy=0;entryX=0.5;entryY=0;entryDx=0;entryDy=0;" edge="1" parent="WIyWlLk6GJQsqaUBKTNV-1" source="7xf99fUFVS-T-3QpDz9j-20" target="7xf99fUFVS-T-3QpDz9j-22">
          <mxGeometry width="50" height="50" relative="1" as="geometry">
            <mxPoint x="610" y="1530" as="sourcePoint" />
            <mxPoint x="660" y="1480" as="targetPoint" />
          </mxGeometry>
        </mxCell>
        <mxCell id="7xf99fUFVS-T-3QpDz9j-27" value="" style="endArrow=classic;html=1;rounded=0;entryX=0.5;entryY=0;entryDx=0;entryDy=0;exitX=0;exitY=0.5;exitDx=0;exitDy=0;" edge="1" parent="WIyWlLk6GJQsqaUBKTNV-1" source="7xf99fUFVS-T-3QpDz9j-21" target="7xf99fUFVS-T-3QpDz9j-24">
          <mxGeometry width="50" height="50" relative="1" as="geometry">
            <mxPoint x="610" y="1530" as="sourcePoint" />
            <mxPoint x="660" y="1480" as="targetPoint" />
            <Array as="points">
              <mxPoint x="360" y="1500" />
            </Array>
          </mxGeometry>
        </mxCell>
        <mxCell id="7xf99fUFVS-T-3QpDz9j-28" value="" style="endArrow=classic;html=1;rounded=0;exitX=1;exitY=0.5;exitDx=0;exitDy=0;entryX=0.5;entryY=0;entryDx=0;entryDy=0;" edge="1" parent="WIyWlLk6GJQsqaUBKTNV-1" source="7xf99fUFVS-T-3QpDz9j-21" target="7xf99fUFVS-T-3QpDz9j-23">
          <mxGeometry width="50" height="50" relative="1" as="geometry">
            <mxPoint x="610" y="1530" as="sourcePoint" />
            <mxPoint x="660" y="1480" as="targetPoint" />
            <Array as="points">
              <mxPoint x="480" y="1500" />
            </Array>
          </mxGeometry>
        </mxCell>
        <mxCell id="7xf99fUFVS-T-3QpDz9j-29" value="[checksum == 0]" style="text;html=1;strokeColor=none;fillColor=none;align=center;verticalAlign=middle;whiteSpace=wrap;rounded=0;" vertex="1" parent="WIyWlLk6GJQsqaUBKTNV-1">
          <mxGeometry x="480" y="1500" width="60" height="30" as="geometry" />
        </mxCell>
        <mxCell id="7xf99fUFVS-T-3QpDz9j-30" value="[else]" style="text;html=1;strokeColor=none;fillColor=none;align=center;verticalAlign=middle;whiteSpace=wrap;rounded=0;" vertex="1" parent="WIyWlLk6GJQsqaUBKTNV-1">
          <mxGeometry x="320" y="1500" width="40" height="30" as="geometry" />
        </mxCell>
        <mxCell id="7xf99fUFVS-T-3QpDz9j-31" value="" style="rhombus;whiteSpace=wrap;html=1;" vertex="1" parent="WIyWlLk6GJQsqaUBKTNV-1">
          <mxGeometry x="400" y="1640" width="40" height="40" as="geometry" />
        </mxCell>
        <mxCell id="7xf99fUFVS-T-3QpDz9j-32" value="" style="endArrow=classic;html=1;rounded=0;exitX=0.5;exitY=1;exitDx=0;exitDy=0;entryX=0;entryY=0.5;entryDx=0;entryDy=0;" edge="1" parent="WIyWlLk6GJQsqaUBKTNV-1" source="7xf99fUFVS-T-3QpDz9j-24" target="7xf99fUFVS-T-3QpDz9j-31">
          <mxGeometry width="50" height="50" relative="1" as="geometry">
            <mxPoint x="610" y="1700" as="sourcePoint" />
            <mxPoint x="660" y="1650" as="targetPoint" />
            <Array as="points">
              <mxPoint x="360" y="1660" />
            </Array>
          </mxGeometry>
        </mxCell>
        <mxCell id="7xf99fUFVS-T-3QpDz9j-33" value="" style="endArrow=classic;html=1;rounded=0;entryX=1;entryY=0.5;entryDx=0;entryDy=0;exitX=0.5;exitY=1;exitDx=0;exitDy=0;" edge="1" parent="WIyWlLk6GJQsqaUBKTNV-1" source="7xf99fUFVS-T-3QpDz9j-23" target="7xf99fUFVS-T-3QpDz9j-31">
          <mxGeometry width="50" height="50" relative="1" as="geometry">
            <mxPoint x="610" y="1700" as="sourcePoint" />
            <mxPoint x="660" y="1650" as="targetPoint" />
            <Array as="points">
              <mxPoint x="480" y="1660" />
            </Array>
          </mxGeometry>
        </mxCell>
        <mxCell id="7xf99fUFVS-T-3QpDz9j-34" value="Copy data to send&lt;br&gt;buffer" style="rounded=1;whiteSpace=wrap;html=1;" vertex="1" parent="WIyWlLk6GJQsqaUBKTNV-1">
          <mxGeometry x="120" y="1320" width="120" height="40" as="geometry" />
        </mxCell>
        <mxCell id="7xf99fUFVS-T-3QpDz9j-35" value="" style="rhombus;whiteSpace=wrap;html=1;" vertex="1" parent="WIyWlLk6GJQsqaUBKTNV-1">
          <mxGeometry x="160" y="1480" width="40" height="40" as="geometry" />
        </mxCell>
        <mxCell id="7xf99fUFVS-T-3QpDz9j-36" value="Add checksum" style="rounded=1;whiteSpace=wrap;html=1;" vertex="1" parent="WIyWlLk6GJQsqaUBKTNV-1">
          <mxGeometry x="120" y="1400" width="120" height="40" as="geometry" />
        </mxCell>
        <mxCell id="7xf99fUFVS-T-3QpDz9j-37" value="Send packet&lt;br&gt;to graphic module" style="rounded=1;whiteSpace=wrap;html=1;" vertex="1" parent="WIyWlLk6GJQsqaUBKTNV-1">
          <mxGeometry x="200" y="1560" width="80" height="50" as="geometry" />
        </mxCell>
        <mxCell id="7xf99fUFVS-T-3QpDz9j-38" value="Initiate &lt;br&gt;retransmission" style="rounded=1;whiteSpace=wrap;html=1;" vertex="1" parent="WIyWlLk6GJQsqaUBKTNV-1">
          <mxGeometry x="80" y="1560" width="80" height="50" as="geometry" />
        </mxCell>
        <mxCell id="7xf99fUFVS-T-3QpDz9j-39" value="" style="endArrow=classic;html=1;rounded=0;entryX=0.5;entryY=0;entryDx=0;entryDy=0;exitX=0.5;exitY=1;exitDx=0;exitDy=0;" edge="1" parent="WIyWlLk6GJQsqaUBKTNV-1" source="7xf99fUFVS-T-3QpDz9j-36" target="7xf99fUFVS-T-3QpDz9j-35">
          <mxGeometry width="50" height="50" relative="1" as="geometry">
            <mxPoint x="370" y="1530" as="sourcePoint" />
            <mxPoint x="420" y="1480" as="targetPoint" />
          </mxGeometry>
        </mxCell>
        <mxCell id="7xf99fUFVS-T-3QpDz9j-40" value="" style="endArrow=classic;html=1;rounded=0;exitX=0.5;exitY=1;exitDx=0;exitDy=0;entryX=0.5;entryY=0;entryDx=0;entryDy=0;" edge="1" parent="WIyWlLk6GJQsqaUBKTNV-1" source="7xf99fUFVS-T-3QpDz9j-34" target="7xf99fUFVS-T-3QpDz9j-36">
          <mxGeometry width="50" height="50" relative="1" as="geometry">
            <mxPoint x="370" y="1530" as="sourcePoint" />
            <mxPoint x="420" y="1480" as="targetPoint" />
          </mxGeometry>
        </mxCell>
        <mxCell id="7xf99fUFVS-T-3QpDz9j-41" value="" style="endArrow=classic;html=1;rounded=0;entryX=0.5;entryY=0;entryDx=0;entryDy=0;exitX=0;exitY=0.5;exitDx=0;exitDy=0;" edge="1" parent="WIyWlLk6GJQsqaUBKTNV-1" source="7xf99fUFVS-T-3QpDz9j-35" target="7xf99fUFVS-T-3QpDz9j-38">
          <mxGeometry width="50" height="50" relative="1" as="geometry">
            <mxPoint x="370" y="1530" as="sourcePoint" />
            <mxPoint x="420" y="1480" as="targetPoint" />
            <Array as="points">
              <mxPoint x="120" y="1500" />
            </Array>
          </mxGeometry>
        </mxCell>
        <mxCell id="7xf99fUFVS-T-3QpDz9j-42" value="" style="endArrow=classic;html=1;rounded=0;exitX=1;exitY=0.5;exitDx=0;exitDy=0;entryX=0.5;entryY=0;entryDx=0;entryDy=0;" edge="1" parent="WIyWlLk6GJQsqaUBKTNV-1" source="7xf99fUFVS-T-3QpDz9j-35" target="7xf99fUFVS-T-3QpDz9j-37">
          <mxGeometry width="50" height="50" relative="1" as="geometry">
            <mxPoint x="370" y="1530" as="sourcePoint" />
            <mxPoint x="420" y="1480" as="targetPoint" />
            <Array as="points">
              <mxPoint x="240" y="1500" />
            </Array>
          </mxGeometry>
        </mxCell>
        <mxCell id="7xf99fUFVS-T-3QpDz9j-43" value="[checksum == 0]" style="text;html=1;strokeColor=none;fillColor=none;align=center;verticalAlign=middle;whiteSpace=wrap;rounded=0;" vertex="1" parent="WIyWlLk6GJQsqaUBKTNV-1">
          <mxGeometry x="240" y="1500" width="60" height="30" as="geometry" />
        </mxCell>
        <mxCell id="7xf99fUFVS-T-3QpDz9j-44" value="[else]" style="text;html=1;strokeColor=none;fillColor=none;align=center;verticalAlign=middle;whiteSpace=wrap;rounded=0;" vertex="1" parent="WIyWlLk6GJQsqaUBKTNV-1">
          <mxGeometry x="80" y="1500" width="40" height="30" as="geometry" />
        </mxCell>
        <mxCell id="7xf99fUFVS-T-3QpDz9j-45" value="" style="rhombus;whiteSpace=wrap;html=1;" vertex="1" parent="WIyWlLk6GJQsqaUBKTNV-1">
          <mxGeometry x="160" y="1640" width="40" height="40" as="geometry" />
        </mxCell>
        <mxCell id="7xf99fUFVS-T-3QpDz9j-46" value="" style="endArrow=classic;html=1;rounded=0;exitX=0.5;exitY=1;exitDx=0;exitDy=0;entryX=0;entryY=0.5;entryDx=0;entryDy=0;" edge="1" parent="WIyWlLk6GJQsqaUBKTNV-1" source="7xf99fUFVS-T-3QpDz9j-38" target="7xf99fUFVS-T-3QpDz9j-45">
          <mxGeometry width="50" height="50" relative="1" as="geometry">
            <mxPoint x="370" y="1700" as="sourcePoint" />
            <mxPoint x="420" y="1650" as="targetPoint" />
            <Array as="points">
              <mxPoint x="120" y="1660" />
            </Array>
          </mxGeometry>
        </mxCell>
        <mxCell id="7xf99fUFVS-T-3QpDz9j-47" value="" style="endArrow=classic;html=1;rounded=0;entryX=1;entryY=0.5;entryDx=0;entryDy=0;exitX=0.5;exitY=1;exitDx=0;exitDy=0;" edge="1" parent="WIyWlLk6GJQsqaUBKTNV-1" source="7xf99fUFVS-T-3QpDz9j-37" target="7xf99fUFVS-T-3QpDz9j-45">
          <mxGeometry width="50" height="50" relative="1" as="geometry">
            <mxPoint x="370" y="1700" as="sourcePoint" />
            <mxPoint x="420" y="1650" as="targetPoint" />
            <Array as="points">
              <mxPoint x="240" y="1660" />
            </Array>
          </mxGeometry>
        </mxCell>
        <mxCell id="7xf99fUFVS-T-3QpDz9j-48" value="Copy data to send&lt;br&gt;buffer" style="rounded=1;whiteSpace=wrap;html=1;" vertex="1" parent="WIyWlLk6GJQsqaUBKTNV-1">
          <mxGeometry x="600" y="1320" width="120" height="40" as="geometry" />
        </mxCell>
        <mxCell id="7xf99fUFVS-T-3QpDz9j-49" value="" style="rhombus;whiteSpace=wrap;html=1;" vertex="1" parent="WIyWlLk6GJQsqaUBKTNV-1">
          <mxGeometry x="640" y="1480" width="40" height="40" as="geometry" />
        </mxCell>
        <mxCell id="7xf99fUFVS-T-3QpDz9j-50" value="Add checksum" style="rounded=1;whiteSpace=wrap;html=1;" vertex="1" parent="WIyWlLk6GJQsqaUBKTNV-1">
          <mxGeometry x="600" y="1400" width="120" height="40" as="geometry" />
        </mxCell>
        <mxCell id="7xf99fUFVS-T-3QpDz9j-51" value="Send packet&lt;br&gt;to graphic module" style="rounded=1;whiteSpace=wrap;html=1;" vertex="1" parent="WIyWlLk6GJQsqaUBKTNV-1">
          <mxGeometry x="680" y="1560" width="80" height="50" as="geometry" />
        </mxCell>
        <mxCell id="7xf99fUFVS-T-3QpDz9j-52" value="Initiate &lt;br&gt;retransmission" style="rounded=1;whiteSpace=wrap;html=1;" vertex="1" parent="WIyWlLk6GJQsqaUBKTNV-1">
          <mxGeometry x="560" y="1560" width="80" height="50" as="geometry" />
        </mxCell>
        <mxCell id="7xf99fUFVS-T-3QpDz9j-53" value="" style="endArrow=classic;html=1;rounded=0;entryX=0.5;entryY=0;entryDx=0;entryDy=0;exitX=0.5;exitY=1;exitDx=0;exitDy=0;" edge="1" parent="WIyWlLk6GJQsqaUBKTNV-1" source="7xf99fUFVS-T-3QpDz9j-50" target="7xf99fUFVS-T-3QpDz9j-49">
          <mxGeometry width="50" height="50" relative="1" as="geometry">
            <mxPoint x="850" y="1530" as="sourcePoint" />
            <mxPoint x="900" y="1480" as="targetPoint" />
          </mxGeometry>
        </mxCell>
        <mxCell id="7xf99fUFVS-T-3QpDz9j-54" value="" style="endArrow=classic;html=1;rounded=0;exitX=0.5;exitY=1;exitDx=0;exitDy=0;entryX=0.5;entryY=0;entryDx=0;entryDy=0;" edge="1" parent="WIyWlLk6GJQsqaUBKTNV-1" source="7xf99fUFVS-T-3QpDz9j-48" target="7xf99fUFVS-T-3QpDz9j-50">
          <mxGeometry width="50" height="50" relative="1" as="geometry">
            <mxPoint x="850" y="1530" as="sourcePoint" />
            <mxPoint x="900" y="1480" as="targetPoint" />
          </mxGeometry>
        </mxCell>
        <mxCell id="7xf99fUFVS-T-3QpDz9j-55" value="" style="endArrow=classic;html=1;rounded=0;entryX=0.5;entryY=0;entryDx=0;entryDy=0;exitX=0;exitY=0.5;exitDx=0;exitDy=0;" edge="1" parent="WIyWlLk6GJQsqaUBKTNV-1" source="7xf99fUFVS-T-3QpDz9j-49" target="7xf99fUFVS-T-3QpDz9j-52">
          <mxGeometry width="50" height="50" relative="1" as="geometry">
            <mxPoint x="850" y="1530" as="sourcePoint" />
            <mxPoint x="900" y="1480" as="targetPoint" />
            <Array as="points">
              <mxPoint x="600" y="1500" />
            </Array>
          </mxGeometry>
        </mxCell>
        <mxCell id="7xf99fUFVS-T-3QpDz9j-56" value="" style="endArrow=classic;html=1;rounded=0;exitX=1;exitY=0.5;exitDx=0;exitDy=0;entryX=0.5;entryY=0;entryDx=0;entryDy=0;" edge="1" parent="WIyWlLk6GJQsqaUBKTNV-1" source="7xf99fUFVS-T-3QpDz9j-49" target="7xf99fUFVS-T-3QpDz9j-51">
          <mxGeometry width="50" height="50" relative="1" as="geometry">
            <mxPoint x="850" y="1530" as="sourcePoint" />
            <mxPoint x="900" y="1480" as="targetPoint" />
            <Array as="points">
              <mxPoint x="720" y="1500" />
            </Array>
          </mxGeometry>
        </mxCell>
        <mxCell id="7xf99fUFVS-T-3QpDz9j-57" value="[checksum == 0]" style="text;html=1;strokeColor=none;fillColor=none;align=center;verticalAlign=middle;whiteSpace=wrap;rounded=0;" vertex="1" parent="WIyWlLk6GJQsqaUBKTNV-1">
          <mxGeometry x="720" y="1500" width="60" height="30" as="geometry" />
        </mxCell>
        <mxCell id="7xf99fUFVS-T-3QpDz9j-58" value="[else]" style="text;html=1;strokeColor=none;fillColor=none;align=center;verticalAlign=middle;whiteSpace=wrap;rounded=0;" vertex="1" parent="WIyWlLk6GJQsqaUBKTNV-1">
          <mxGeometry x="560" y="1500" width="40" height="30" as="geometry" />
        </mxCell>
        <mxCell id="7xf99fUFVS-T-3QpDz9j-59" value="" style="rhombus;whiteSpace=wrap;html=1;" vertex="1" parent="WIyWlLk6GJQsqaUBKTNV-1">
          <mxGeometry x="640" y="1640" width="40" height="40" as="geometry" />
        </mxCell>
        <mxCell id="7xf99fUFVS-T-3QpDz9j-60" value="" style="endArrow=classic;html=1;rounded=0;exitX=0.5;exitY=1;exitDx=0;exitDy=0;entryX=0;entryY=0.5;entryDx=0;entryDy=0;" edge="1" parent="WIyWlLk6GJQsqaUBKTNV-1" source="7xf99fUFVS-T-3QpDz9j-52" target="7xf99fUFVS-T-3QpDz9j-59">
          <mxGeometry width="50" height="50" relative="1" as="geometry">
            <mxPoint x="850" y="1700" as="sourcePoint" />
            <mxPoint x="900" y="1650" as="targetPoint" />
            <Array as="points">
              <mxPoint x="600" y="1660" />
            </Array>
          </mxGeometry>
        </mxCell>
        <mxCell id="7xf99fUFVS-T-3QpDz9j-61" value="" style="endArrow=classic;html=1;rounded=0;entryX=1;entryY=0.5;entryDx=0;entryDy=0;exitX=0.5;exitY=1;exitDx=0;exitDy=0;" edge="1" parent="WIyWlLk6GJQsqaUBKTNV-1" source="7xf99fUFVS-T-3QpDz9j-51" target="7xf99fUFVS-T-3QpDz9j-59">
          <mxGeometry width="50" height="50" relative="1" as="geometry">
            <mxPoint x="850" y="1700" as="sourcePoint" />
            <mxPoint x="900" y="1650" as="targetPoint" />
            <Array as="points">
              <mxPoint x="720" y="1660" />
            </Array>
          </mxGeometry>
        </mxCell>
        <mxCell id="7xf99fUFVS-T-3QpDz9j-62" value="" style="endArrow=classic;html=1;rounded=0;entryX=0.5;entryY=0;entryDx=0;entryDy=0;exitX=0;exitY=0.5;exitDx=0;exitDy=0;" edge="1" parent="WIyWlLk6GJQsqaUBKTNV-1" source="7xf99fUFVS-T-3QpDz9j-19" target="7xf99fUFVS-T-3QpDz9j-34">
          <mxGeometry width="50" height="50" relative="1" as="geometry">
            <mxPoint x="610" y="1320" as="sourcePoint" />
            <mxPoint x="660" y="1270" as="targetPoint" />
            <Array as="points">
              <mxPoint x="180" y="1260" />
            </Array>
          </mxGeometry>
        </mxCell>
        <mxCell id="7xf99fUFVS-T-3QpDz9j-63" value="" style="endArrow=classic;html=1;rounded=0;exitX=0.5;exitY=1;exitDx=0;exitDy=0;entryX=0.5;entryY=0;entryDx=0;entryDy=0;" edge="1" parent="WIyWlLk6GJQsqaUBKTNV-1" source="7xf99fUFVS-T-3QpDz9j-19" target="7xf99fUFVS-T-3QpDz9j-20">
          <mxGeometry width="50" height="50" relative="1" as="geometry">
            <mxPoint x="610" y="1320" as="sourcePoint" />
            <mxPoint x="660" y="1270" as="targetPoint" />
          </mxGeometry>
        </mxCell>
        <mxCell id="7xf99fUFVS-T-3QpDz9j-64" value="" style="endArrow=classic;html=1;rounded=0;exitX=1;exitY=0.5;exitDx=0;exitDy=0;entryX=0.5;entryY=0;entryDx=0;entryDy=0;" edge="1" parent="WIyWlLk6GJQsqaUBKTNV-1" source="7xf99fUFVS-T-3QpDz9j-19" target="7xf99fUFVS-T-3QpDz9j-48">
          <mxGeometry width="50" height="50" relative="1" as="geometry">
            <mxPoint x="610" y="1320" as="sourcePoint" />
            <mxPoint x="660" y="1270" as="targetPoint" />
            <Array as="points">
              <mxPoint x="660" y="1260" />
            </Array>
          </mxGeometry>
        </mxCell>
        <mxCell id="7xf99fUFVS-T-3QpDz9j-65" value="[Packetheader is EBME]" style="text;html=1;strokeColor=none;fillColor=none;align=center;verticalAlign=middle;whiteSpace=wrap;rounded=0;" vertex="1" parent="WIyWlLk6GJQsqaUBKTNV-1">
          <mxGeometry x="180" y="1230" width="100" height="30" as="geometry" />
        </mxCell>
        <mxCell id="7xf99fUFVS-T-3QpDz9j-66" value="[Packetheader is MTEO]" style="text;html=1;strokeColor=none;fillColor=none;align=center;verticalAlign=middle;whiteSpace=wrap;rounded=0;" vertex="1" parent="WIyWlLk6GJQsqaUBKTNV-1">
          <mxGeometry x="560" y="1230" width="100" height="30" as="geometry" />
        </mxCell>
        <mxCell id="7xf99fUFVS-T-3QpDz9j-67" value="[Packetheader is TIME]" style="text;html=1;strokeColor=none;fillColor=none;align=center;verticalAlign=middle;whiteSpace=wrap;rounded=0;" vertex="1" parent="WIyWlLk6GJQsqaUBKTNV-1">
          <mxGeometry x="320" y="1280" width="100" height="30" as="geometry" />
        </mxCell>
        <mxCell id="7xf99fUFVS-T-3QpDz9j-68" value="" style="endArrow=classic;html=1;rounded=0;exitX=0.5;exitY=1;exitDx=0;exitDy=0;" edge="1" parent="WIyWlLk6GJQsqaUBKTNV-1" source="7xf99fUFVS-T-3QpDz9j-6">
          <mxGeometry width="50" height="50" relative="1" as="geometry">
            <mxPoint x="610" y="1150" as="sourcePoint" />
            <mxPoint x="420" y="1160" as="targetPoint" />
            <Array as="points">
              <mxPoint x="580" y="1040" />
              <mxPoint x="420" y="1040" />
            </Array>
          </mxGeometry>
        </mxCell>
        <mxCell id="7xf99fUFVS-T-3QpDz9j-69" value="" style="endArrow=classic;html=1;rounded=0;entryX=0.5;entryY=0;entryDx=0;entryDy=0;" edge="1" parent="WIyWlLk6GJQsqaUBKTNV-1" target="7xf99fUFVS-T-3QpDz9j-19">
          <mxGeometry width="50" height="50" relative="1" as="geometry">
            <mxPoint x="420" y="1180" as="sourcePoint" />
            <mxPoint x="660" y="1350" as="targetPoint" />
          </mxGeometry>
        </mxCell>
        <mxCell id="7xf99fUFVS-T-3QpDz9j-72" value="" style="endArrow=classic;html=1;rounded=0;entryX=0;entryY=0.5;entryDx=0;entryDy=0;" edge="1" parent="WIyWlLk6GJQsqaUBKTNV-1" target="7xf99fUFVS-T-3QpDz9j-77">
          <mxGeometry width="50" height="50" relative="1" as="geometry">
            <mxPoint x="140" y="1180" as="sourcePoint" />
            <mxPoint x="100" y="1848" as="targetPoint" />
            <Array as="points">
              <mxPoint x="140" y="1200" />
              <mxPoint x="60" y="1200" />
              <mxPoint x="60" y="1900" />
            </Array>
          </mxGeometry>
        </mxCell>
        <mxCell id="7xf99fUFVS-T-3QpDz9j-73" value="" style="rhombus;whiteSpace=wrap;html=1;" vertex="1" parent="WIyWlLk6GJQsqaUBKTNV-1">
          <mxGeometry x="400" y="1800" width="40" height="40" as="geometry" />
        </mxCell>
        <mxCell id="7xf99fUFVS-T-3QpDz9j-74" value="" style="endArrow=classic;html=1;rounded=0;entryX=0.5;entryY=0;entryDx=0;entryDy=0;exitX=0.5;exitY=1;exitDx=0;exitDy=0;" edge="1" parent="WIyWlLk6GJQsqaUBKTNV-1" source="7xf99fUFVS-T-3QpDz9j-31" target="7xf99fUFVS-T-3QpDz9j-73">
          <mxGeometry width="50" height="50" relative="1" as="geometry">
            <mxPoint x="610" y="1590" as="sourcePoint" />
            <mxPoint x="660" y="1540" as="targetPoint" />
          </mxGeometry>
        </mxCell>
        <mxCell id="7xf99fUFVS-T-3QpDz9j-75" value="" style="endArrow=classic;html=1;rounded=0;entryX=0;entryY=0.5;entryDx=0;entryDy=0;exitX=0.5;exitY=1;exitDx=0;exitDy=0;" edge="1" parent="WIyWlLk6GJQsqaUBKTNV-1" source="7xf99fUFVS-T-3QpDz9j-45" target="7xf99fUFVS-T-3QpDz9j-73">
          <mxGeometry width="50" height="50" relative="1" as="geometry">
            <mxPoint x="610" y="1590" as="sourcePoint" />
            <mxPoint x="660" y="1540" as="targetPoint" />
            <Array as="points">
              <mxPoint x="180" y="1820" />
            </Array>
          </mxGeometry>
        </mxCell>
        <mxCell id="7xf99fUFVS-T-3QpDz9j-76" value="" style="endArrow=classic;html=1;rounded=0;entryX=1;entryY=0.5;entryDx=0;entryDy=0;exitX=0.5;exitY=1;exitDx=0;exitDy=0;" edge="1" parent="WIyWlLk6GJQsqaUBKTNV-1" source="7xf99fUFVS-T-3QpDz9j-59" target="7xf99fUFVS-T-3QpDz9j-73">
          <mxGeometry width="50" height="50" relative="1" as="geometry">
            <mxPoint x="610" y="1590" as="sourcePoint" />
            <mxPoint x="660" y="1540" as="targetPoint" />
            <Array as="points">
              <mxPoint x="660" y="1820" />
            </Array>
          </mxGeometry>
        </mxCell>
        <mxCell id="7xf99fUFVS-T-3QpDz9j-77" value="" style="rhombus;whiteSpace=wrap;html=1;" vertex="1" parent="WIyWlLk6GJQsqaUBKTNV-1">
          <mxGeometry x="400" y="1880" width="40" height="40" as="geometry" />
        </mxCell>
        <mxCell id="7xf99fUFVS-T-3QpDz9j-78" value="" style="endArrow=classic;html=1;rounded=0;exitX=0.5;exitY=1;exitDx=0;exitDy=0;entryX=0.5;entryY=0;entryDx=0;entryDy=0;" edge="1" parent="WIyWlLk6GJQsqaUBKTNV-1" source="7xf99fUFVS-T-3QpDz9j-73" target="7xf99fUFVS-T-3QpDz9j-77">
          <mxGeometry width="50" height="50" relative="1" as="geometry">
            <mxPoint x="610" y="1850" as="sourcePoint" />
            <mxPoint x="660" y="1800" as="targetPoint" />
          </mxGeometry>
        </mxCell>
        <mxCell id="7xf99fUFVS-T-3QpDz9j-80" value="" style="endArrow=classic;html=1;rounded=0;exitX=0.5;exitY=1;exitDx=0;exitDy=0;" edge="1" parent="WIyWlLk6GJQsqaUBKTNV-1" source="7xf99fUFVS-T-3QpDz9j-97">
          <mxGeometry width="50" height="50" relative="1" as="geometry">
            <mxPoint x="260" y="670" as="sourcePoint" />
            <mxPoint x="140" y="1160" as="targetPoint" />
          </mxGeometry>
        </mxCell>
        <mxCell id="7xf99fUFVS-T-3QpDz9j-81" value="" style="rhombus;whiteSpace=wrap;html=1;" vertex="1" parent="WIyWlLk6GJQsqaUBKTNV-1">
          <mxGeometry x="520" y="2040" width="40" height="40" as="geometry" />
        </mxCell>
        <mxCell id="7xf99fUFVS-T-3QpDz9j-82" value="Send CO2 data" style="rounded=1;whiteSpace=wrap;html=1;" vertex="1" parent="WIyWlLk6GJQsqaUBKTNV-1">
          <mxGeometry x="600" y="2120" width="120" height="40" as="geometry" />
        </mxCell>
        <mxCell id="7xf99fUFVS-T-3QpDz9j-83" value="" style="rhombus;whiteSpace=wrap;html=1;" vertex="1" parent="WIyWlLk6GJQsqaUBKTNV-1">
          <mxGeometry x="520" y="2200" width="40" height="40" as="geometry" />
        </mxCell>
        <mxCell id="7xf99fUFVS-T-3QpDz9j-84" value="" style="endArrow=classic;html=1;rounded=0;entryX=0.5;entryY=0;entryDx=0;entryDy=0;exitX=1;exitY=0.5;exitDx=0;exitDy=0;" edge="1" parent="WIyWlLk6GJQsqaUBKTNV-1" source="7xf99fUFVS-T-3QpDz9j-81" target="7xf99fUFVS-T-3QpDz9j-82">
          <mxGeometry width="50" height="50" relative="1" as="geometry">
            <mxPoint x="740" y="2150" as="sourcePoint" />
            <mxPoint x="790" y="2100" as="targetPoint" />
            <Array as="points">
              <mxPoint x="660" y="2060" />
            </Array>
          </mxGeometry>
        </mxCell>
        <mxCell id="7xf99fUFVS-T-3QpDz9j-85" value="" style="endArrow=classic;html=1;rounded=0;entryX=1;entryY=0.5;entryDx=0;entryDy=0;exitX=0.5;exitY=1;exitDx=0;exitDy=0;" edge="1" parent="WIyWlLk6GJQsqaUBKTNV-1" source="7xf99fUFVS-T-3QpDz9j-82" target="7xf99fUFVS-T-3QpDz9j-83">
          <mxGeometry width="50" height="50" relative="1" as="geometry">
            <mxPoint x="740" y="2150" as="sourcePoint" />
            <mxPoint x="790" y="2100" as="targetPoint" />
            <Array as="points">
              <mxPoint x="660" y="2220" />
            </Array>
          </mxGeometry>
        </mxCell>
        <mxCell id="7xf99fUFVS-T-3QpDz9j-86" value="" style="endArrow=classic;html=1;rounded=0;entryX=0.5;entryY=0;entryDx=0;entryDy=0;" edge="1" parent="WIyWlLk6GJQsqaUBKTNV-1" target="7xf99fUFVS-T-3QpDz9j-83">
          <mxGeometry width="50" height="50" relative="1" as="geometry">
            <mxPoint x="540" y="2080" as="sourcePoint" />
            <mxPoint x="790" y="2100" as="targetPoint" />
          </mxGeometry>
        </mxCell>
        <mxCell id="7xf99fUFVS-T-3QpDz9j-87" value="" style="rhombus;whiteSpace=wrap;html=1;" vertex="1" parent="WIyWlLk6GJQsqaUBKTNV-1">
          <mxGeometry x="200" y="2040" width="40" height="40" as="geometry" />
        </mxCell>
        <mxCell id="7xf99fUFVS-T-3QpDz9j-88" value="Send BME Data" style="rounded=1;whiteSpace=wrap;html=1;" vertex="1" parent="WIyWlLk6GJQsqaUBKTNV-1">
          <mxGeometry x="280" y="2120" width="120" height="40" as="geometry" />
        </mxCell>
        <mxCell id="7xf99fUFVS-T-3QpDz9j-89" value="" style="rhombus;whiteSpace=wrap;html=1;" vertex="1" parent="WIyWlLk6GJQsqaUBKTNV-1">
          <mxGeometry x="200" y="2200" width="40" height="40" as="geometry" />
        </mxCell>
        <mxCell id="7xf99fUFVS-T-3QpDz9j-90" value="" style="endArrow=classic;html=1;rounded=0;entryX=0.5;entryY=0;entryDx=0;entryDy=0;exitX=1;exitY=0.5;exitDx=0;exitDy=0;" edge="1" parent="WIyWlLk6GJQsqaUBKTNV-1" source="7xf99fUFVS-T-3QpDz9j-87" target="7xf99fUFVS-T-3QpDz9j-88">
          <mxGeometry width="50" height="50" relative="1" as="geometry">
            <mxPoint x="420" y="2150" as="sourcePoint" />
            <mxPoint x="470" y="2100" as="targetPoint" />
            <Array as="points">
              <mxPoint x="340" y="2060" />
            </Array>
          </mxGeometry>
        </mxCell>
        <mxCell id="7xf99fUFVS-T-3QpDz9j-91" value="" style="endArrow=classic;html=1;rounded=0;entryX=1;entryY=0.5;entryDx=0;entryDy=0;exitX=0.5;exitY=1;exitDx=0;exitDy=0;" edge="1" parent="WIyWlLk6GJQsqaUBKTNV-1" source="7xf99fUFVS-T-3QpDz9j-88" target="7xf99fUFVS-T-3QpDz9j-89">
          <mxGeometry width="50" height="50" relative="1" as="geometry">
            <mxPoint x="420" y="2150" as="sourcePoint" />
            <mxPoint x="470" y="2100" as="targetPoint" />
            <Array as="points">
              <mxPoint x="340" y="2220" />
            </Array>
          </mxGeometry>
        </mxCell>
        <mxCell id="7xf99fUFVS-T-3QpDz9j-92" value="" style="endArrow=classic;html=1;rounded=0;entryX=0.5;entryY=0;entryDx=0;entryDy=0;" edge="1" parent="WIyWlLk6GJQsqaUBKTNV-1" target="7xf99fUFVS-T-3QpDz9j-89">
          <mxGeometry width="50" height="50" relative="1" as="geometry">
            <mxPoint x="220" y="2080" as="sourcePoint" />
            <mxPoint x="470" y="2100" as="targetPoint" />
          </mxGeometry>
        </mxCell>
        <mxCell id="7xf99fUFVS-T-3QpDz9j-93" value="" style="endArrow=classic;html=1;rounded=0;exitX=0.5;exitY=1;exitDx=0;exitDy=0;entryX=0.5;entryY=0;entryDx=0;entryDy=0;" edge="1" parent="WIyWlLk6GJQsqaUBKTNV-1" source="7xf99fUFVS-T-3QpDz9j-77" target="7xf99fUFVS-T-3QpDz9j-81">
          <mxGeometry width="50" height="50" relative="1" as="geometry">
            <mxPoint x="690" y="2040" as="sourcePoint" />
            <mxPoint x="740" y="1990" as="targetPoint" />
            <Array as="points">
              <mxPoint x="420" y="1960" />
              <mxPoint x="540" y="1960" />
            </Array>
          </mxGeometry>
        </mxCell>
        <mxCell id="7xf99fUFVS-T-3QpDz9j-94" value="" style="endArrow=classic;html=1;rounded=0;entryX=0.5;entryY=0;entryDx=0;entryDy=0;exitX=0.5;exitY=1;exitDx=0;exitDy=0;" edge="1" parent="WIyWlLk6GJQsqaUBKTNV-1" source="7xf99fUFVS-T-3QpDz9j-83" target="7xf99fUFVS-T-3QpDz9j-87">
          <mxGeometry width="50" height="50" relative="1" as="geometry">
            <mxPoint x="690" y="2150" as="sourcePoint" />
            <mxPoint x="740" y="2100" as="targetPoint" />
            <Array as="points">
              <mxPoint x="540" y="2270" />
              <mxPoint x="440" y="2270" />
              <mxPoint x="440" y="2020" />
              <mxPoint x="220" y="2020" />
            </Array>
          </mxGeometry>
        </mxCell>
        <mxCell id="7xf99fUFVS-T-3QpDz9j-95" value="" style="endArrow=classic;html=1;rounded=0;exitX=0.5;exitY=1;exitDx=0;exitDy=0;" edge="1" parent="WIyWlLk6GJQsqaUBKTNV-1" source="7xf99fUFVS-T-3QpDz9j-89">
          <mxGeometry width="50" height="50" relative="1" as="geometry">
            <mxPoint x="390" y="1990" as="sourcePoint" />
            <mxPoint x="30" y="1180" as="targetPoint" />
            <Array as="points">
              <mxPoint x="220" y="2280" />
              <mxPoint x="30" y="2280" />
            </Array>
          </mxGeometry>
        </mxCell>
        <mxCell id="7xf99fUFVS-T-3QpDz9j-96" value="" style="endArrow=classic;html=1;rounded=0;entryX=0;entryY=0.5;entryDx=0;entryDy=0;" edge="1" parent="WIyWlLk6GJQsqaUBKTNV-1" target="qtHoDfniQL__DjmvW1wy-0">
          <mxGeometry width="50" height="50" relative="1" as="geometry">
            <mxPoint x="30" y="1160" as="sourcePoint" />
            <mxPoint x="440" y="830" as="targetPoint" />
            <Array as="points">
              <mxPoint x="30" y="260" />
            </Array>
          </mxGeometry>
        </mxCell>
        <mxCell id="7xf99fUFVS-T-3QpDz9j-97" value="" style="rhombus;whiteSpace=wrap;html=1;" vertex="1" parent="WIyWlLk6GJQsqaUBKTNV-1">
          <mxGeometry x="120" y="680" width="40" height="40" as="geometry" />
        </mxCell>
        <mxCell id="7xf99fUFVS-T-3QpDz9j-98" value="" style="endArrow=classic;html=1;rounded=0;exitX=0.5;exitY=1;exitDx=0;exitDy=0;entryX=0.5;entryY=0;entryDx=0;entryDy=0;" edge="1" parent="WIyWlLk6GJQsqaUBKTNV-1" source="qtHoDfniQL__DjmvW1wy-0" target="7xf99fUFVS-T-3QpDz9j-97">
          <mxGeometry width="50" height="50" relative="1" as="geometry">
            <mxPoint x="390" y="560" as="sourcePoint" />
            <mxPoint x="440" y="510" as="targetPoint" />
          </mxGeometry>
        </mxCell>
        <mxCell id="7xf99fUFVS-T-3QpDz9j-99" value="" style="endArrow=classic;html=1;rounded=0;entryX=1;entryY=0.5;entryDx=0;entryDy=0;exitX=0.5;exitY=1;exitDx=0;exitDy=0;" edge="1" parent="WIyWlLk6GJQsqaUBKTNV-1" source="7xf99fUFVS-T-3QpDz9j-1" target="7xf99fUFVS-T-3QpDz9j-97">
          <mxGeometry width="50" height="50" relative="1" as="geometry">
            <mxPoint x="390" y="560" as="sourcePoint" />
            <mxPoint x="440" y="510" as="targetPoint" />
            <Array as="points">
              <mxPoint x="260" y="700" />
            </Array>
          </mxGeometry>
        </mxCell>
        <mxCell id="7xf99fUFVS-T-3QpDz9j-100" value="[data available in UART rx buffer]" style="text;html=1;strokeColor=none;fillColor=none;align=center;verticalAlign=middle;whiteSpace=wrap;rounded=0;" vertex="1" parent="WIyWlLk6GJQsqaUBKTNV-1">
          <mxGeometry x="170" y="230" width="110" height="30" as="geometry" />
        </mxCell>
        <mxCell id="7xf99fUFVS-T-3QpDz9j-101" value="[else]" style="text;html=1;strokeColor=none;fillColor=none;align=center;verticalAlign=middle;whiteSpace=wrap;rounded=0;" vertex="1" parent="WIyWlLk6GJQsqaUBKTNV-1">
          <mxGeometry x="100" y="290" width="40" height="30" as="geometry" />
        </mxCell>
        <mxCell id="7xf99fUFVS-T-3QpDz9j-102" value="[else]" style="text;html=1;strokeColor=none;fillColor=none;align=center;verticalAlign=middle;whiteSpace=wrap;rounded=0;" vertex="1" parent="WIyWlLk6GJQsqaUBKTNV-1">
          <mxGeometry x="220" y="450" width="40" height="30" as="geometry" />
        </mxCell>
        <mxCell id="7xf99fUFVS-T-3QpDz9j-103" value="[else]" style="text;html=1;strokeColor=none;fillColor=none;align=center;verticalAlign=middle;whiteSpace=wrap;rounded=0;" vertex="1" parent="WIyWlLk6GJQsqaUBKTNV-1">
          <mxGeometry x="180" y="2080" width="40" height="30" as="geometry" />
        </mxCell>
        <mxCell id="7xf99fUFVS-T-3QpDz9j-104" value="[else]" style="text;html=1;strokeColor=none;fillColor=none;align=center;verticalAlign=middle;whiteSpace=wrap;rounded=0;" vertex="1" parent="WIyWlLk6GJQsqaUBKTNV-1">
          <mxGeometry x="500" y="2080" width="40" height="30" as="geometry" />
        </mxCell>
        <mxCell id="7xf99fUFVS-T-3QpDz9j-105" value="[30s elapsed and bme is available]" style="text;html=1;strokeColor=none;fillColor=none;align=center;verticalAlign=middle;whiteSpace=wrap;rounded=0;" vertex="1" parent="WIyWlLk6GJQsqaUBKTNV-1">
          <mxGeometry x="250" y="2030" width="120" height="30" as="geometry" />
        </mxCell>
        <mxCell id="7xf99fUFVS-T-3QpDz9j-106" value="[30s elapsed and CO2 sensor is ready]" style="text;html=1;strokeColor=none;fillColor=none;align=center;verticalAlign=middle;whiteSpace=wrap;rounded=0;" vertex="1" parent="WIyWlLk6GJQsqaUBKTNV-1">
          <mxGeometry x="570" y="2030" width="140" height="30" as="geometry" />
        </mxCell>
        <mxCell id="7xf99fUFVS-T-3QpDz9j-108" value="[Packetheader is EBME]" style="text;html=1;strokeColor=none;fillColor=none;align=center;verticalAlign=middle;whiteSpace=wrap;rounded=0;" vertex="1" parent="WIyWlLk6GJQsqaUBKTNV-1">
          <mxGeometry x="330" y="440" width="90" height="30" as="geometry" />
        </mxCell>
        <mxCell id="7xf99fUFVS-T-3QpDz9j-109" value="[Packetheader is TIME]" style="text;html=1;strokeColor=none;fillColor=none;align=center;verticalAlign=middle;whiteSpace=wrap;rounded=0;" vertex="1" parent="WIyWlLk6GJQsqaUBKTNV-1">
          <mxGeometry x="490" y="440" width="90" height="30" as="geometry" />
        </mxCell>
        <mxCell id="7xf99fUFVS-T-3QpDz9j-110" value="[Packetheader is MTEO]" style="text;html=1;strokeColor=none;fillColor=none;align=center;verticalAlign=middle;whiteSpace=wrap;rounded=0;" vertex="1" parent="WIyWlLk6GJQsqaUBKTNV-1">
          <mxGeometry x="650" y="440" width="90" height="30" as="geometry" />
        </mxCell>
      </root>
    </mxGraphModel>
  </diagram>
  <diagram id="g9DaKWjcNGb5XiYYkxRT" name="Seite-2">
    <mxGraphModel dx="1434" dy="884" grid="1" gridSize="10" guides="1" tooltips="1" connect="1" arrows="1" fold="1" page="1" pageScale="1" pageWidth="827" pageHeight="1169" math="0" shadow="0">
      <root>
        <mxCell id="0" />
        <mxCell id="1" parent="0" />
        <mxCell id="dI3X5Ae60N6g42h5-Vmt-1" value="&lt;font style=&quot;font-size: 15px;&quot;&gt;Core1&lt;/font&gt;" style="text;html=1;strokeColor=none;fillColor=none;align=center;verticalAlign=middle;whiteSpace=wrap;rounded=0;" vertex="1" parent="1">
          <mxGeometry x="150" y="50" width="60" height="30" as="geometry" />
        </mxCell>
        <mxCell id="dI3X5Ae60N6g42h5-Vmt-2" value="" style="rhombus;whiteSpace=wrap;html=1;" vertex="1" parent="1">
          <mxGeometry x="160" y="200" width="40" height="40" as="geometry" />
        </mxCell>
        <mxCell id="dI3X5Ae60N6g42h5-Vmt-4" value="" style="ellipse;fillColor=strokeColor;html=1;" vertex="1" parent="1">
          <mxGeometry x="165" y="120" width="30" height="30" as="geometry" />
        </mxCell>
        <mxCell id="dI3X5Ae60N6g42h5-Vmt-5" value="Read and store CO2&lt;br&gt;concentration" style="rounded=1;whiteSpace=wrap;html=1;" vertex="1" parent="1">
          <mxGeometry x="240" y="280" width="120" height="40" as="geometry" />
        </mxCell>
        <mxCell id="dI3X5Ae60N6g42h5-Vmt-6" value="" style="rhombus;whiteSpace=wrap;html=1;" vertex="1" parent="1">
          <mxGeometry x="160" y="360" width="40" height="40" as="geometry" />
        </mxCell>
        <mxCell id="dI3X5Ae60N6g42h5-Vmt-7" value="" style="endArrow=classic;html=1;rounded=0;exitX=0.5;exitY=1;exitDx=0;exitDy=0;entryX=0.5;entryY=0;entryDx=0;entryDy=0;" edge="1" parent="1" source="dI3X5Ae60N6g42h5-Vmt-4" target="dI3X5Ae60N6g42h5-Vmt-2">
          <mxGeometry width="50" height="50" relative="1" as="geometry">
            <mxPoint x="660" y="250" as="sourcePoint" />
            <mxPoint x="710" y="200" as="targetPoint" />
          </mxGeometry>
        </mxCell>
        <mxCell id="dI3X5Ae60N6g42h5-Vmt-8" value="" style="endArrow=classic;html=1;rounded=0;exitX=1;exitY=0.5;exitDx=0;exitDy=0;entryX=0.5;entryY=0;entryDx=0;entryDy=0;" edge="1" parent="1" source="dI3X5Ae60N6g42h5-Vmt-2" target="dI3X5Ae60N6g42h5-Vmt-5">
          <mxGeometry width="50" height="50" relative="1" as="geometry">
            <mxPoint x="660" y="250" as="sourcePoint" />
            <mxPoint x="710" y="200" as="targetPoint" />
            <Array as="points">
              <mxPoint x="300" y="220" />
            </Array>
          </mxGeometry>
        </mxCell>
        <mxCell id="dI3X5Ae60N6g42h5-Vmt-9" value="" style="endArrow=classic;html=1;rounded=0;entryX=1;entryY=0.5;entryDx=0;entryDy=0;exitX=0.5;exitY=1;exitDx=0;exitDy=0;" edge="1" parent="1" source="dI3X5Ae60N6g42h5-Vmt-5" target="dI3X5Ae60N6g42h5-Vmt-6">
          <mxGeometry width="50" height="50" relative="1" as="geometry">
            <mxPoint x="660" y="250" as="sourcePoint" />
            <mxPoint x="710" y="200" as="targetPoint" />
            <Array as="points">
              <mxPoint x="300" y="380" />
            </Array>
          </mxGeometry>
        </mxCell>
        <mxCell id="dI3X5Ae60N6g42h5-Vmt-10" value="" style="endArrow=classic;html=1;rounded=0;exitX=0.5;exitY=1;exitDx=0;exitDy=0;entryX=0.5;entryY=0;entryDx=0;entryDy=0;" edge="1" parent="1" source="dI3X5Ae60N6g42h5-Vmt-2" target="dI3X5Ae60N6g42h5-Vmt-6">
          <mxGeometry width="50" height="50" relative="1" as="geometry">
            <mxPoint x="660" y="250" as="sourcePoint" />
            <mxPoint x="710" y="200" as="targetPoint" />
          </mxGeometry>
        </mxCell>
        <mxCell id="dI3X5Ae60N6g42h5-Vmt-11" value="" style="endArrow=classic;html=1;rounded=0;entryX=0;entryY=0.5;entryDx=0;entryDy=0;exitX=0;exitY=0.5;exitDx=0;exitDy=0;" edge="1" parent="1" source="dI3X5Ae60N6g42h5-Vmt-6" target="dI3X5Ae60N6g42h5-Vmt-2">
          <mxGeometry width="50" height="50" relative="1" as="geometry">
            <mxPoint x="660" y="250" as="sourcePoint" />
            <mxPoint x="710" y="200" as="targetPoint" />
            <Array as="points">
              <mxPoint x="120" y="380" />
              <mxPoint x="120" y="220" />
            </Array>
          </mxGeometry>
        </mxCell>
        <mxCell id="dI3X5Ae60N6g42h5-Vmt-12" value="[CO2 sensor is ready]" style="text;html=1;strokeColor=none;fillColor=none;align=center;verticalAlign=middle;whiteSpace=wrap;rounded=0;" vertex="1" parent="1">
          <mxGeometry x="210" y="190" width="90" height="30" as="geometry" />
        </mxCell>
        <mxCell id="dI3X5Ae60N6g42h5-Vmt-13" value="[else]" style="text;html=1;strokeColor=none;fillColor=none;align=center;verticalAlign=middle;whiteSpace=wrap;rounded=0;" vertex="1" parent="1">
          <mxGeometry x="135" y="250" width="60" height="30" as="geometry" />
        </mxCell>
      </root>
    </mxGraphModel>
  </diagram>
</mxfile>
